<svg xmlns="http://www.w3.org/2000/svg" version="1.1" width="600px" height="600px" viewBox="0 0 200 200" style="overflow:hidden!important;"><g id="svga-group-wrapper"><g id="svga-group-backs-single"><path id="SvgjsPath8713" d="M0 0h200v200H0V0z" fill="#91a386" stroke-width="none" opacity="1" stroke="none"></path><path id="SvgjsPath8714" d="M100 124.2c-13.3 0-24.2-10.8-24.2-24.2S86.7 75.8 100 75.8s24.2 10.8 24.2 24.2-10.9 24.2-24.2 24.2zm0-42.4c-10 0-18.2 8.2-18.2 18.2s8.2 18.2 18.2 18.2 18.2-8.2 18.2-18.2S110 81.8 100 81.8zm0 57.4c-21.6 0-39.2-17.6-39.2-39.2S78.4 60.8 100 60.8s39.2 17.6 39.2 39.2-17.6 39.2-39.2 39.2zm0-72.4c-18.3 0-33.2 14.9-33.2 33.2s14.9 33.2 33.2 33.2 33.2-14.9 33.2-33.2-14.9-33.2-33.2-33.2zm0 87.5c-29.9 0-54.3-24.4-54.3-54.3S70.1 45.7 100 45.7 154.3 70 154.3 100s-24.4 54.3-54.3 54.3zm0-102.6c-26.6 0-48.3 21.7-48.3 48.3 0 26.6 21.7 48.3 48.3 48.3 26.6 0 48.3-21.7 48.3-48.3 0-26.6-21.7-48.3-48.3-48.3zm0 116.4c-37.6 0-68.1-30.6-68.1-68.1S62.4 31.9 100 31.9s68.1 30.6 68.1 68.1-30.5 68.1-68.1 68.1zm0-130.2c-34.2 0-62.1 27.9-62.1 62.1s27.9 62.1 62.1 62.1 62.1-27.9 62.1-62.1-27.9-62.1-62.1-62.1zm0 146.2c-46.4 0-84.1-37.7-84.1-84.1S53.6 15.9 100 15.9s84.1 37.7 84.1 84.1-37.7 84.1-84.1 84.1zm0-162.2c-43.1 0-78.1 35-78.1 78.1s35 78.1 78.1 78.1 78.1-35.1 78.1-78.1-35-78.1-78.1-78.1zm0 90c-6.6 0-11.9-5.4-11.9-11.9 0-6.6 5.4-11.9 11.9-11.9 6.6 0 11.9 5.4 11.9 11.9 0 6.6-5.3 11.9-11.9 11.9zm0-17.8c-3.3 0-5.9 2.7-5.9 5.9 0 3.3 2.7 5.9 5.9 5.9 3.3 0 5.9-2.7 5.9-5.9 0-3.3-2.6-5.9-5.9-5.9zM0 146.7v12.8c9.9 16.6 23.9 30.6 40.5 40.5h12.8C29.9 189 11 170.1 0 146.7zm200 0c-11 23.4-29.9 42.3-53.3 53.3h12.8c16.6-9.9 30.6-23.9 40.5-40.5v-12.8zm0-93.4V40.5C190.1 23.9 176.1 9.9 159.5 0h-12.8C170.1 11 189 29.9 200 53.3zm-200 0C11 29.9 29.9 11 53.3 0H40.5C23.9 9.9 9.9 23.9 0 40.5v12.8zm200 36.3C195.1 42.5 157.6 4.9 110.4 0H89.6C42.5 4.9 4.9 42.5 0 89.6v20.8c4.9 47.1 42.5 84.7 89.6 89.6h20.8c47.1-4.9 84.7-42.4 89.6-89.6V89.6zM100 194.5c-52.1 0-94.5-42.4-94.5-94.5S47.9 5.5 100 5.5s94.5 42.4 94.5 94.5-42.4 94.5-94.5 94.5zM0 176.2v9.5c4.4 5.1 9.1 9.9 14.3 14.3h9.5c-9-6.8-17-14.8-23.8-23.8zm200 0c-6.8 8.9-14.8 16.9-23.8 23.8h9.5c5.1-4.4 9.9-9.1 14.3-14.3v-9.5zM0 23.8c6.8-9 14.8-17 23.8-23.8h-9.5C9.1 4.4 4.4 9.1 0 14.3v9.5zm200 0v-9.5c-4.4-5.1-9.1-9.9-14.3-14.3h-9.5c9 6.8 17 14.8 23.8 23.8z" fill="#7a946b" stroke-width="none" opacity="1" stroke="none"></path></g><g id="svga-group-humanwrap-move" transform="matrix(1,0,0,1,0,0)"><g id="svga-group-humanwrap"><g id="svga-group-hair-back-move" transform="matrix(1,0,0,1,0,0)"><g id="svga-group-hair-back"></g></g><g id="svga-group-humanbody-back"><path id="SvgjsPath8295" d="M180.8 184.9c-2.3-3.4-38.9-17.8-38.9-17.8l-8.4-5.2-5.6-68.8H71.8L66.3 162l-8.4 5.2S21.4 181.6 19 185c-2.3 3.4-3.3 14.9-3.3 14.9V219h168.5v-19.2c-.1.1-1-11.5-3.4-14.9z" fill="#f0c7b1" stroke-width="none" opacity="1" stroke="none"></path></g><g id="svga-group-chinshadow-single"><path id="SvgjsPath8477" d="M81.84 157.47c4 1.7 7.66 2.8 11.06 3.4 2.7.5 5.4.5 8 0 3.4-.6 7.08-1.89 11.08-3.49 2.2-.9 3.96-2.86 4.52-5.98 1.8-9.13 6.21-21.09 12.18-31.8.48-.75.9-1.45 1.3-2.11L128 93.1h-28L71.72 93l-2.58 33.52c4.03 9.12 6.07 17.09 8.16 24.88.25 2.53 2.44 5.17 4.54 6.07z" fill="#d19271" stroke-width="none" opacity="1"></path></g><g id="svga-group-humanbody-front"><path id="SvgjsPath8296" d="M184.4 199.8c-.2-2.6-.6-5.1-1-7.6-.2-1.3-.5-2.5-.8-3.8l-.3-.9-.3-.9c-.1-.3-.3-.6-.4-.9-.1-.3-.3-.6-.5-.8-.3-.4-.7-.6-1-.9-.4-.3-.7-.5-1.1-.7-.8-.5-1.6-.9-2.3-1.3l-4.8-2.4c-3.2-1.5-6.5-3-9.8-4.4L157 173l-4.9-2.1c-3.3-1.4-6.6-2.8-9.9-4.1l-8.2-5.2-1.2-17-1.3-17.2c-.5-5.7-.9-11.5-1.4-17.2l-.7-8.6-.7-8.6-.1-.6h-.6l-56 .4h-.3v.3l-1.4 17.2c-.4 5.7-1 11.5-1.4 17.2l-1.5 17.2-1.5 17-8.2 5-13.5 5.4c-4.5 1.8-9 3.7-13.4 5.7-2.2 1-4.4 2-6.6 3.1-1.1.5-2.2 1.1-3.3 1.7-.5.3-1.1.6-1.6 1-.3.2-.5.4-.8.7l-.1.1-.1.1-.1.2-.3.4c-.6 1.2-.9 2.4-1.3 3.6-.3 1.2-.6 2.4-.8 3.6-.4 2.4-.7 4.8-1 7.3l-.9 20.4h171.5l-1-20.2zM16.6 218.2c.2-2.1.5-23.4.8-25.5.2-1.2.4-2.4.7-3.5.3-1.1.6-2.3 1.1-3.3l.2-.3.1-.2v-.2l.5-.5c.4-.3.9-.7 1.4-1 1-.6 2.1-1.2 3.2-1.7 2.1-1.1 4.3-2.1 6.5-3.1 4.4-2 8.9-3.9 13.3-5.8 4.5-1.9 8.9-3.8 13.4-5.6l8.4-5.3.2-.1v-.2l1.3-17.2 1.4-17.2c.5-5.7.9-11.5 1.4-17.2l1.4-16.9 55.1.4.6 8 .7 8.6c.5 5.7 1 11.5 1.4 17.2l1.5 17.2 1.6 17.2v.2l.2.1 8.5 5.1c3.3 1.3 6.7 2.6 10 3.9l5 2 4.9 2.1c3.3 1.4 6.6 2.8 9.8 4.3 1.6.8 3.2 1.5 4.8 2.4.8.4 1.6.8 2.3 1.3.4.2.8.5 1.1.7.4.3.7.5 1 .9.2.3.3.5.5.8.1.3.3.6.4.9l.3.9.3.9c.3 1.2.6 2.5.8 3.7.4 2.5.8 24 1 26.5l-167.1-.5z" fill="#c27b55" stroke-width="none" opacity="1" stroke="none"></path><path id="SvgjsPath8297" d="M125.1 142.4s-1.8 23-9.1 32.9c0 0 7.9-25 9.1-32.9zm-34.5 16s5 7.9 11.5 10.1c0 0-9.5 2.2-11.5-10.1zM73.4 140c6.7 25.6 6.7 25.6 8.5 30.7 0 0 .4-12.6-8.5-30.7z" fill="#d19271" stroke-width="none" opacity="1" stroke="none"></path></g><g id="svga-group-clothes-single"><path id="SvgjsPath8418" d="M187 220c0-12.4-1.8-33.5-4-36.1s-36.9-16.9-39.5-17.6-9.5-4.8-9.5-4.8l-.9-15s-3 2.2-8.3 3.6-18.7 4.2-21.5 6.3-2 12.2-2 12.2l-2.1-.2s-.2-10.4-3-12.5c-2.8-2.1-16-4.4-21.5-5.8s-8.3-3.6-8.3-3.6l-.9 15s-6.9 4.1-9.5 4.8-37.3 15-39.5 17.6-4 23.7-4 36.1H187z" fill="#386e77" stroke-width="none" opacity="1"></path><path id="SvgjsPath8419" d="M90.2 179.4h19.7v3.4H90.2v-3.4zm0 14.8h19.7v3.4H90.2v-3.4zm0 14.7h19.7v3.4H90.2v-3.4z" fill="#939393" stroke-width="none" opacity="1"></path><path id="SvgjsPath8420" d="M187.1 214.3c0-1.9-.1-3.8-.2-5.7-.2-3.8-.4-7.5-.7-11.3-.4-3.8-.8-7.5-1.7-11.3-.1-.5-.2-.9-.4-1.4-.2-.4-.4-1-.8-1.4-.9-.7-1.7-1.1-2.5-1.6-1.7-.9-3.4-1.8-5.1-2.6-6.8-3.3-13.8-6.3-20.7-9.2-3.5-1.4-6.9-2.9-10.6-4.2-.2-.1-.5-.2-.7-.2-.2-.1-.4-.1-.6-.2-.4-.1-.8-.3-1.2-.5-.8-.4-1.7-.8-2.5-1.2-1.5-.8-3-1.6-4.5-2.5-.2-4.8-.6-9.7-.9-14.5l-.1-1.6-1.3.9c-1.4 1-3 1.8-4.7 2.4-1.7.7-3.4 1.1-5.2 1.5-3.6.9-7.2 1.7-10.8 2.7-1.8.5-3.6 1-5.3 1.6-.9.3-1.8.6-2.6 1.1-.2.1-.4.2-.7.4s-.4.3-.6.5c-.4.4-.7.9-.9 1.3-.8 1.9-1 3.8-1.1 5.6-.1 1.7-.1 3.3 0 5l-1.1-.1c-.1-1.7-.2-3.4-.5-5.1-.3-1.9-.6-3.7-1.5-5.5-.2-.4-.5-.9-.8-1.3-.2-.2-.4-.4-.6-.5-.2-.1-.4-.3-.6-.4-.9-.4-1.8-.8-2.7-1-1.8-.6-3.6-1-5.4-1.4-3.6-.9-7.3-1.6-10.9-2.4-3.6-.7-7.2-2-10.2-4l-.5-.3v.6l-.9 14.8c-1.6.9-3.2 1.8-4.8 2.6-1.7.9-3.3 1.7-5.2 2.1-3.6 1.3-7.1 2.7-10.6 4.1-7 2.8-14 5.7-20.8 8.9-1.7.8-3.4 1.6-5.1 2.5-.4.2-.8.5-1.3.7-.4.3-.8.5-1.3.9s-.7 1-.9 1.5c-.2.5-.3.9-.5 1.4-1 3.8-1.4 7.5-1.9 11.3-.8 7.5-1.3 15.1-1.4 22.7v.9h1c14.6 0 29.2.1 43.8.1 14.6-.1 29.2 0 43.8-.1l43.6-.4 43.3-.5c0-.5.1-1 .1-1.5v-1.4l.3-2.8zm-85.2-51c.2-1.8.4-3.6 1.1-5.2.2-.4.4-.7.6-.9.1-.1.3-.2.4-.3.2-.1.3-.2.6-.3.8-.4 1.6-.7 2.5-1 1.7-.6 3.5-1.1 5.3-1.5 3.6-.9 7.2-1.7 10.8-2.6 1.8-.4 3.7-.9 5.4-1.6 1.3-.5 2.6-1.1 3.8-1.8.2 4.5.5 9 .8 13.5v.4c-2.4 1.2-4.8 2.3-7.2 3.1-2.8 1-5.6 1.8-8.5 2.4-1.4.3-2.9.5-4.3.8-1.5.2-2.9.4-4.4.5-2.3.2-4.6.3-6.8.2v-.3c-.2-1.8-.2-3.6-.1-5.4zm-2.1 33.9c-1.6 0-3.2.1-4.8.2-1.6.1-3.1.1-4.7.1 0-1 .1-1.9.1-2.9 3.2.2 6.4.2 9.6.2 3.2 0 6.4-.1 9.6-.2.1 1 .2 2 .2 3-1.8-.1-3.4-.2-5.1-.3-1.6-.1-3.2-.1-4.9-.1zm.2 12.2c3.2 0 6.4-.1 9.6-.2.1 1 .2 2 .2 3-1.8-.1-3.4-.2-5.1-.3-1.7-.1-3.3-.1-4.9-.1s-3.2.1-4.8.2c-1.6.1-3.1.1-4.7.1 0-1 .1-1.9.1-2.9 3.2.1 6.4.2 9.6.2zm-.5-15.7v-3.6 3.6zm.3-11.3c-.1 0-3.3.1-4.8.2-1.6.1-3.1.1-4.7.1 0-1 .1-1.9.1-2.9 3.2.2 6.4.2 9.6.2 3.2 0 6.4-.1 9.6-.2.1 1 .2 2 .2 3-1.8-.1-3.4-.2-5.1-.3-1.6-.1-3.2-.1-4.9-.1zm-33.1-35.3c3 1.9 6.5 3.1 9.9 3.9 3.6.8 7.3 1.6 10.9 2.4 1.8.4 3.6.9 5.3 1.5.9.3 1.7.6 2.5 1l.5.3c.2.1.3.3.4.4.2.3.5.7.7 1.1.7 1.6 1 3.5 1.3 5.3.2 1.8.4 3.7.4 5.5v.4c-5.5-.2-10.9-1-16.3-2.2-2.9-.6-5.7-1.4-8.6-2.2-2.7-.8-5.4-1.7-8-2.8v-.1l1-14.5zm-52 50.4c.4-3.7.8-7.5 1.6-11.1.1-.4.2-.9.4-1.3.1-.4.3-.8.5-.9.2-.2.6-.5 1-.7.4-.2.8-.5 1.2-.7.3-.1.5-.3.8-.4 1 1.3 1.9 2.6 2.7 4 .9 1.4 1.6 2.9 2.3 4.4 1.4 3 2.6 6.1 3.4 9.2s1.4 6.4 1.9 9.7c.4 3 .8 6.1 1.1 9.2-6 0-12 .1-18.1.1.1-7.1.5-14.3 1.2-21.5zm84.7 21.6c-14.5-.1-29-.1-43.4-.1H31.7c0-1.4 0-2.9-.1-4.3-.1-1.7-.2-3.3-.4-5-.3-3.3-.9-6.6-1.6-9.9-.8-3.2-2.1-6.4-3.7-9.3-1.6-2.9-3.4-5.7-5.7-8.1l4.2-2.1c6.8-3.2 13.7-6.2 20.6-9.2 3.5-1.4 7-2.9 10.5-4.2 1.8-.5 3.6-1.4 5.2-2.3 1.7-.9 3.3-1.8 4.9-2.8l.2-.1v-.1c5.2 2.5 10.7 4.4 16.4 5.8 5.8 1.4 11.7 2.2 17.6 2.5h.1c-.1 1.9-.1 3.7-.2 5.6l-.1 3.4c-3.2 0-6.3.1-9.5.2h-.3v.3c0 1.1.1 2.2.1 3.4v.2h.2c1.7 0 3.3 0 5 .1 1.5.1 2.9.1 4.4.1v3.7c0 2.3 0 4.6-.1 6.9-3.1 0-6.2.1-9.3.2h-.3v.3c0 1.1.1 2.2.1 3.4v.2h.2c1.7 0 3.3 0 5 .1 1.5.1 2.9.1 4.4.1 0 3.5 0 6.9.1 10.4-3.2 0-6.3.1-9.4.2h-.3v.3c0 1.1.1 2.2.1 3.4v.2h.2c1.7 0 3.3 0 5 .1 1.5.1 3.1.1 4.6.1.1 3 .1 3.7.2 6.5l-.6-.2zm43.6.4-43-.3c.2-2.7.2-3.5.2-6.5 1.7 0 3.3-.1 4.9-.1 1.6-.1 3.2-.1 4.8-.3.1-1.1.2-2.2.2-3.4v-.3h-.3c-3.2-.2-6.3-.2-9.5-.2.1-3.4.1-7 .1-10.4 1.6 0 3.1-.1 4.6-.1 1.6-.1 3.2-.1 4.8-.3.1-1.1.2-2.2.2-3.4v-.3h-.3c-3.1-.2-6.2-.2-9.4-.2 0-3.9 0-6.6-.1-10.5 1.6 0 3.2-.1 4.7-.1 1.6-.1 3.2-.1 4.8-.3.1-1.1.2-2.2.2-3.4v-.3h-.3c-3.2-.2-6.3-.2-9.5-.2l-.1-3.4c-.1-1.9-.1-3.7-.2-5.6 2.9.1 5.8 0 8.8-.3 3-.3 5.9-.7 8.8-1.4 5.5-1.3 10.7-3.4 15.6-6.2l.4.2c1.6 1 3.3 1.9 5 2.8.9.4 1.7.9 2.6 1.3.4.2.9.4 1.4.6.2.1.5.2.7.2.2.1.4.1.6.2 3.5 1.2 7 2.7 10.5 4.1 7 2.9 13.9 5.8 20.8 8.9 1.3.6 2.5 1.2 3.8 1.8-2.1 2.6-3.7 5.4-5 8.5-1.4 3-2.3 6.3-2.7 9.6-.4 3.3-.7 6.6-.7 9.9 0 3.2.1 6.5.4 9.7l-27.8-.3zm27.9.3c0-1.6 0-3.1.1-4.7 0-1.6.1-3.3.2-4.9.2-3.3.5-6.6.9-9.8.4-3.2 1.3-6.4 2.4-9.4.6-1.5 1.2-3 2-4.5.7-1.5 1.5-2.9 2.3-4.2.4.2.9.4 1.3.6.8.4 1.7.9 2.3 1.4.2.2.4.6.6 1 .2.4.3.9.4 1.3.9 3.6 1.4 7.3 1.9 11.1.4 3.7.8 7.5 1.1 11.2.1 1.9.2 3.8.3 5.6l.2 5.6-16-.3z" fill="#184f58" stroke-width="none" opacity="1"></path></g><g id="svga-group-head" transform="matrix(1,0,0,1,0,0)"><g id="svga-group-ears-left-move" transform="matrix(1,0,0,1,0,0)"><g id="svga-group-ears-left"><path id="SvgjsPath8195" d="M68.53 80.36s-11.15-9.8-12.94-9.96c-1.54-.14-5.36 8.01-7.05 13.16-.45 1.36-.34 2.88.25 4.2 1.62 3.57 5.21 11.04 8.43 14.78 0 0 2.72.59 3.58.33.86-.25 7.58-5.67 8.27-7.77s.83-11.3-.54-14.74z" fill="#f0c7b1" stroke-width="none" opacity="1" stroke="none"></path><path id="SvgjsPath8196" d="M69.49 84.19c.18 1.31.28 2.64.33 3.96.05 1.32.06 2.65-.01 3.98a26.7 26.7 0 0 1-.17 1.99c-.05.34-.1.67-.2 1.02s-.28.7-.46.96c-.72 1.11-1.6 1.95-2.47 2.8-.88.84-1.78 1.63-2.71 2.4-.47.38-.93.75-1.42 1.11-.24.18-.49.35-.74.52l-.4.24c-.16.08-.35.17-.53.19-.67.08-1.23-.01-1.82-.09-.58-.08-1.15-.19-1.73-.32l-.13-.03-.08-.1c-1.45-1.74-2.63-3.68-3.74-5.65-1.1-1.98-2.1-4.03-3.06-6.1l-1.41-3.11c-.5-1.05-.71-2.29-.54-3.46.06-.59.26-1.14.44-1.67.18-.54.37-1.07.56-1.6.4-1.05.79-2.11 1.22-3.15.86-2.07 1.76-4.13 2.94-6.02.3-.47.62-.93 1-1.36.19-.21.4-.42.67-.59.13-.08.3-.16.52-.16.19.01.32.07.47.12 1.06.47 1.87 1.14 2.75 1.76 1.72 1.29 3.37 2.66 5 4.09 1.64 1.41 3.22 2.86 4.81 4.38.49 1.27.72 2.58.91 3.89zM58.4 72.51c-.85-.59-1.75-1.26-2.59-1.61-.09-.02-.2-.08-.26-.08-.04 0-.12.02-.2.07-.17.1-.35.25-.51.44-.34.36-.65.8-.94 1.24-1.16 1.8-2.18 3.77-3.11 5.77-.46 1.01-.92 2.02-1.32 3.06-.2.52-.4 1.04-.59 1.57-.19.53-.38 1.05-.45 1.6-.15 1.11.06 2.27.55 3.26.47 1.03.98 2.05 1.49 3.05 1.02 2.02 2.12 3.99 3.26 5.91 1.15 1.91 2.36 3.79 3.76 5.42l-.21-.13c1.09.2 2.3.43 3.29.33.11-.01.18-.06.28-.11l.35-.22.7-.5c.47-.34.93-.71 1.39-1.08.92-.74 1.81-1.52 2.68-2.34.85-.82 1.73-1.66 2.39-2.61.17-.25.29-.46.38-.72.08-.27.14-.58.19-.89.09-.63.17-1.27.21-1.91.1-1.29.14-2.6.15-3.9.01-1.31-.04-2.62-.15-3.92-.11-1.3-.27-2.62-.66-3.84-3.33-2.62-6.67-5.35-10.08-7.86z" fill="#e1ac8f" stroke-width="none" opacity="1" stroke="none"></path><path id="SvgjsPath8197" d="M68.79 88.66S58.04 75.08 56.02 76.21c-2.01 1.12-5.19 7.53-5.18 9.67.02 3.14 3.34 8.38 5.01 9.96s3.68 2.55 6.35 1.94c2.66-.61 6.59-9.12 6.59-9.12z" fill="#e1ac8f" stroke-width="none" opacity="1" stroke="none"></path><path id="SvgjsPath8198" d="M60.61 88.64c-.45-1.26-.95-2.5-1.45-3.74a49.61 49.61 0 0 0-1.66-3.64c-.61-1.18-1.22-2.36-1.97-3.45l-.08-.12-.08.12c-.75 1.18-1.45 2.38-2.12 3.62-.33.62-.66 1.25-.96 1.89-.31.64-.57 1.31-.84 1.98l-.04.1.04.12c.46 1.41.96 2.79 1.47 4.18.25.69.54 1.37.83 2.05.3.68.59 1.35.99 2.01l.19.31.25-.23c.34-.31.6-.65.87-1.02.26-.37.49-.76.69-1.17.4-.82.63-1.78.6-2.74v-.06l-.02-.04c-.5-.99-1.03-1.96-1.55-2.94l-.05.03c.42 1.01.83 2.03 1.26 3.03-.04.86-.3 1.68-.68 2.41-.33.62-.77 1.17-1.24 1.65-.26-.49-.5-1.02-.73-1.56l-.81-2.03c-.53-1.32-1.03-2.66-1.52-3.99.45-1.3.94-2.59 1.52-3.82.57-1.23 1.22-2.41 1.96-3.51.67 1.04 1.17 2.23 1.68 3.39l1.54 3.67 1.56 3.67c.52 1.22 1.05 2.45 1.6 3.66l.06-.03c-.41-1.27-.85-2.54-1.31-3.8z" fill="#c27b55" stroke-width="none" opacity="1" stroke="none"></path></g></g><g id="svga-group-ears-right-move" transform="matrix(1,0,0,1,0,0)"><g id="svga-group-ears-right"><path id="SvgjsPath8199" d="M131.47 80.36s11.15-9.8 12.94-9.96c1.54-.14 5.36 8.01 7.05 13.16.45 1.36.34 2.88-.25 4.2-1.62 3.57-5.21 11.04-8.43 14.78 0 0-2.72.59-3.58.33-.86-.25-7.58-5.67-8.27-7.77s-.83-11.3.54-14.74z" fill="#f0c7b1" stroke-width="none" opacity="1" stroke="none"></path><path id="SvgjsPath8200" d="M131.44 80.33c1.58-1.52 3.17-2.97 4.81-4.38 1.62-1.42 3.28-2.8 5-4.09.88-.63 1.69-1.29 2.75-1.76.16-.04.28-.11.47-.12.21 0 .38.08.52.16.28.17.49.37.67.59.38.43.7.89 1 1.36 1.18 1.89 2.07 3.96 2.94 6.02.43 1.04.82 2.09 1.22 3.15.19.53.38 1.06.56 1.6.18.53.37 1.08.44 1.67.17 1.17-.04 2.41-.54 3.46l-1.41 3.11c-.97 2.06-1.96 4.11-3.06 6.1-1.11 1.98-2.29 3.92-3.74 5.65l-.08.1-.13.03c-.58.13-1.15.23-1.73.32-.59.07-1.16.16-1.82.09-.18-.02-.37-.11-.53-.19l-.4-.24c-.25-.17-.5-.34-.74-.52-.48-.36-.95-.73-1.42-1.11-.93-.76-1.83-1.56-2.71-2.4-.87-.86-1.75-1.69-2.47-2.8a3.42 3.42 0 0 1-.46-.96c-.1-.35-.14-.69-.2-1.02-.08-.67-.14-1.33-.17-1.99-.07-1.33-.07-2.65-.01-3.98.06-1.32.15-2.65.33-3.96.17-1.34.4-2.65.91-3.89zm.06.06c-.4 1.21-.56 2.54-.66 3.84-.1 1.3-.15 2.61-.15 3.92.01 1.31.06 2.61.15 3.9.05.65.12 1.29.21 1.91.06.31.11.62.19.89.09.26.2.47.38.72.66.94 1.54 1.79 2.39 2.61.86.81 1.76 1.59 2.68 2.34.46.37.92.73 1.39 1.08l.7.5.35.22c.1.05.17.1.28.11.99.1 2.2-.13 3.29-.33l-.21.13c1.4-1.63 2.61-3.51 3.76-5.42 1.14-1.92 2.24-3.89 3.26-5.91.51-1.01 1.02-2.02 1.49-3.05.49-.99.7-2.15.55-3.26-.07-.56-.26-1.07-.45-1.6s-.38-1.05-.59-1.57c-.4-1.04-.86-2.06-1.32-3.06-.93-2.01-1.95-3.97-3.11-5.77-.29-.44-.6-.88-.94-1.24-.17-.18-.35-.34-.51-.44a.431.431 0 0 0-.2-.07c-.06 0-.17.06-.26.08-.84.35-1.74 1.02-2.59 1.61-3.39 2.49-6.73 5.22-10.08 7.86z" fill="#e1ac8f" stroke-width="none" opacity="1" stroke="none"></path><path id="SvgjsPath8201" d="M131.21 88.66s10.75-13.58 12.77-12.45c2.01 1.12 5.19 7.53 5.18 9.67-.02 3.14-3.34 8.38-5.01 9.96s-3.68 2.55-6.35 1.94c-2.66-.61-6.59-9.12-6.59-9.12z" fill="#e1ac8f" stroke-width="none" opacity="1" stroke="none"></path><path id="SvgjsPath8202" d="M148.54 85.31c-.26-.67-.52-1.34-.84-1.98-.3-.64-.62-1.27-.96-1.89-.67-1.24-1.38-2.44-2.12-3.62l-.08-.12-.08.12c-.74 1.1-1.36 2.27-1.97 3.45-.6 1.18-1.14 2.4-1.66 3.64-.49 1.24-1 2.48-1.45 3.74-.46 1.26-.9 2.53-1.28 3.81l.06.03c.55-1.21 1.07-2.44 1.6-3.66l1.56-3.67 1.54-3.67c.51-1.16 1.01-2.35 1.68-3.39.74 1.1 1.39 2.29 1.96 3.51.58 1.24 1.08 2.52 1.52 3.82-.5 1.34-.99 2.67-1.52 3.99l-.81 2.03c-.23.53-.47 1.07-.73 1.56-.47-.48-.91-1.03-1.24-1.65-.39-.73-.64-1.55-.68-2.41.43-1 .84-2.02 1.26-3.03l-.05-.03c-.52.98-1.05 1.95-1.55 2.94l-.02.04v.06c-.03.96.2 1.92.6 2.74.2.41.43.81.69 1.17.26.36.53.71.87 1.02l.25.23.19-.31c.4-.67.69-1.34.99-2.01.29-.68.57-1.36.83-2.05.51-1.38 1.01-2.77 1.47-4.18l.04-.12-.07-.11z" fill="#c27b55" stroke-width="none" opacity="1" stroke="none"></path></g></g><g id="svga-group-faceshape-wrap"><g id="svga-group-faceshape-single"><path id="SvgjsPath8467" d="M140.4 54.9c-2.2-10-6.3-16-15.2-20.8-9.3-5-25.2-4.8-25.2-4.8s-15.9-.2-25.2 4.8c-8.8 4.8-13 10.8-15.2 20.8-.9 4 0 13.6 0 13.6s1.2 20.4 2.3 25.8c.6 2.3.9 5.5 6.1 14 6.9 12.8 9.5 23.1 12.2 33.1.2 2.5 2.4 5.2 4.5 6.1 4 1.7 7.7 2.8 11.1 3.4 2.7.5 5.4.5 8 0 3.4-.6 7.1-1.9 11.1-3.5 2.2-.9 4-2.9 4.5-6 1.8-9.1 6.2-21.1 12.2-31.8 6.1-9.6 5.8-12.1 6.5-15.5.8-5.1 2-25.6 2-25.6.2-.1 1.2-9.6.3-13.6z" fill="#f0c7b1" stroke-width="none" opacity="1"></path><path id="SvgjsPath8468" d="M140.4 54.9c-2.2-10-6.3-16-15.2-20.8-9.3-5-25.2-4.8-25.2-4.8s-15.9-.2-25.2 4.8c-8.8 4.8-13 10.8-15.2 20.8-.9 4 0 13.6 0 13.6s1.2 20.4 2.3 25.8c.6 2.3.9 5.5 6.1 14 6.9 12.8 9.5 23.1 12.2 33.1.2 2.5 2.4 5.2 4.5 6.1 4 1.7 7.7 2.8 11.1 3.4 2.7.5 5.4.5 8 0 3.4-.6 7.1-1.9 11.1-3.5 2.2-.9 4-2.9 4.5-6 1.8-9.1 6.2-21.1 12.2-31.8 6.1-9.6 5.8-12.1 6.5-15.5.8-5.1 2-25.6 2-25.6.2-.1 1.2-9.6.3-13.6zm0 10.2-.3 3.2-.1.2c-.4 5.2-.9 10.3-1.3 15.4-.6 5.1-.9 10.4-2.4 15.1-.9 2.3-2.1 4.5-3.4 6.7l-2.1 3.3c-.7 1.1-1.3 2.3-1.9 3.4-2.4 4.6-4.6 9.4-6.4 14.2-.9 2.4-1.8 4.9-2.5 7.4-.4 1.2-.7 2.5-1 3.8-.2.6-.3 1.3-.4 1.9l-.4 1.9c-.3 1.1-.7 2.1-1.4 2.9-.3.4-2.6 1.8-2.6 1.8-2.4.9-4.8 1.9-7.2 2.5-1.2.4-2.4.6-3.6.8-1.2.2-2.4.3-3.6.3-1.2 0-2.4-.1-3.6-.4-1.2-.2-2.5-.5-3.7-.8-2.4-.6-4.8-1.5-7.1-2.5-1.8-.9-3.6-3-3.8-5.1 0 0-2.2-8-3.5-11.9-1.3-3.9-2.7-7.8-4.4-11.5-1.7-3.7-3.5-7.4-5.6-10.9-2.1-3.4-4.1-7-5.1-10.9-.2-1-.5-2-.7-2.9-.2-1-.3-2-.4-3-.2-2-.5-4-.6-6.1-.3-4.1-.6-8.1-.9-12.2l-.2-3.1-.2-3.1c-.1-2-.1-4-.1-6.1 0-1 .1-2 .2-3s.3-1.9.6-2.9c.5-1.9 1.2-3.8 2-5.7 1.6-3.6 4-6.8 7.1-9.3 1.5-1.2 3.2-2.3 4.9-3.3.9-.5 1.7-.9 2.6-1.3.9-.3 1.8-.7 2.8-1 1.9-.6 3.8-1.1 5.8-1.5 2-.4 3.9-.7 5.9-.9 4-.4 8-.7 12-.5 4 .1 8.1.5 12 1.2 2 .4 3.9.9 5.8 1.5s3.7 1.5 5.4 2.5c3.5 2 6.6 4.7 8.9 8.1 2.3 3.4 3.5 7.3 4.4 11.2.2 1.1.3 2.2.3 3.4v3.4c-.1 1.5-.1 2.7-.2 3.8z" fill="#c27b55" stroke-width="none" opacity="1"></path></g></g><g id="svga-group-mouth-single-move" transform="matrix(1,0,0,1,0,0)"><g id="svga-group-mouth-single"><path id="SvgjsPath8140" d="M115.95 118.84c-4.63 2.63-9.43 4.52-14.64 5.63-2.65.57-5.32.92-8.03 1.06-2.69.13-6.06.67-7.85-1.78-.95-1.3-2.74.38-1.63 1.26 1.64 1.3 3.8 1.52 5.85 1.65 3.29.21 6.56.06 9.84-.27 6.21-.62 12.33-2.37 18.05-4.83 1.82-.78.22-3.75-1.59-2.72z" fill="#d19271" stroke-width="none" opacity="1" stroke="none"></path><path id="SvgjsPath8141" d="M107.27 130.14c-1.8-.09-3.6.28-5.4.35-1.81.07-3.62-.07-5.43-.06-.38 0-.47.57-.09.67 3.35.88 7.85 1.04 11.07-.39.3-.13.13-.55-.15-.57z" fill="#d99e80" stroke-width="none" opacity="1" stroke="none"></path></g></g><g id="svga-group-eyes-left-move" transform="matrix(1,0,0,1,0,0)"><g id="svga-group-eyes-left"><g id="svga-group-eyesback-left"><path id="SvgjsPath8237" d="M80.2 74.2c7.5 0 13.5 5.8 13.5 13s-6 13-13.5 13-13.5-5.8-13.5-13 6-13 13.5-13z" fill="#ffffff" stroke-width="none" opacity="1"></path></g><g id="svga-group-eyesiriswrapper-left" transform="matrix(1,0,0,1,0,0)"><g id="svga-group-eyesiriscontrol-left" transform="matrix(1,0,0,1,0,0)"><g id="svga-group-eyesiris-left"><path id="SvgjsPath8335" d="M80.2 81.6c3.1 0 5.6 2.5 5.6 5.6s-2.5 5.6-5.6 5.6-5.6-2.5-5.6-5.6 2.5-5.6 5.6-5.6z" fill="#27942d" stroke-width="none" opacity="1" stroke="none"></path><path id="SvgjsPath8336" d="M80.2 84.2c1.7 0 3 1.3 3 3s-1.3 3-3 3-3-1.3-3-3 1.3-3 3-3z" fill="#000000" stroke-width="none" opacity="1"></path><path id="SvgjsPath8337" d="m79.5 84.8-.6-.6c-.2-.2-.5-.3-.8-.3s-.6.1-.8.3c-.2.2-.3.5-.3.8s.1.6.3.8l.6.6c.2.2.5.3.7.3.3 0 .6-.1.7-.3.6-.6.6-1.2.2-1.6zm2.7 5.1c1 0 1-1.5 0-1.5-.9 0-.9 1.5 0 1.5z" fill="#ffffff" stroke-width="none" opacity="1"></path></g></g></g><g id="svga-group-eyesfront-left"><path id="SvgjsPath8245" d="M80.2 73.7c-7.8 0-14.1 6.1-14.1 13.6s6.3 13.6 14.1 13.6 14.1-6.1 14.1-13.6S88 73.7 80.2 73.7zm-4.9 20.2c-4.8-1.7-6.4-6.7-7.2-10.1-.9-3.5 13.8-3.5 17.5-.4 3.8 3 5.3 7.3 5.5 9.6.1-.1-11 2.6-15.8.9z" fill="#f0c7b1" stroke-width="none" opacity="1" stroke="none"></path><path id="SvgjsPath8246" d="M91.1 92.5c-.1-.5-.1-1-.3-1.4l-.3-.9c-.5-1.9-1.5-4.5-3-6.2-1.2-1.3-4.1-4.4-9-4.4s-8.2 1.6-8.8 1.9c-.2.1-.5.3-.7.5-.4.2-.8.5-1.1 1-.1.2-.1.3-.1.5-.1.1-.1.2-.1.2h.1c0 .1 0 .3.1.4.1.3.2.6.2.9l.6 1.8c.4 1.2.9 2.3 1.6 3.4.7 1.1 1.5 2 2.5 2.8s2.2 1.3 3.4 1.6c2.5.5 5 .3 7.5 0s4.9-.8 7.3-1.5c.2-.2.2-.4.1-.6zm0 .4c-2.4.4-4.9.8-7.3 1.1-1.2.1-2.5.2-3.7.2-1.2 0-2.5 0-3.7-.2-2.4-.4-4.6-1.9-5.8-4-.7-1-1.2-2.2-1.6-3.3-.2-.6-.4-1.2-.5-1.8-.1-.3-.2-.6-.2-.9 0-.2-.1-.3-.1-.4 1.4-.4 6.6-1.9 10.5-1.9 4.5.1 7.9 3.6 9.3 5.1 1.2 1.1 3 5.1 3.1 6.1z" fill="#2b2b2b" stroke-width="none" opacity="1" stroke="none"></path></g></g></g><g id="svga-group-eyes-right-move" transform="matrix(1,0,0,1,0,0)"><g id="svga-group-eyes-right"><g id="svga-group-eyesback-right"><path id="SvgjsPath8238" d="M119.8 74.2c7.5 0 13.5 5.8 13.5 13s-6 13-13.5 13-13.5-5.8-13.5-13 6-13 13.5-13z" fill="#ffffff" stroke-width="none" opacity="1"></path></g><g id="svga-group-eyesiriswrapper-right" transform="matrix(1,0,0,1,0,0)"><g id="svga-group-eyesiriscontrol-right" transform="matrix(1,0,0,1,0,0)"><g id="svga-group-eyesiris-right"><path id="SvgjsPath8338" d="M119.8 82.3c2.7 0 4.9 2.2 4.9 4.9s-2.2 4.9-4.9 4.9-4.9-2.2-4.9-4.9 2.2-4.9 4.9-4.9z" fill="#27942d" stroke-width="none" opacity="1" stroke="none"></path><path id="SvgjsPath8339" d="M119.8 84.6c1.4 0 2.6 1.2 2.6 2.6s-1.2 2.6-2.6 2.6-2.6-1.2-2.6-2.6 1.2-2.6 2.6-2.6z" fill="#000000" stroke-width="none" opacity="1"></path><path id="SvgjsPath8340" d="M119.2 85.1c-.2-.2-.3-.4-.5-.5-.2-.2-.4-.3-.7-.3-.2 0-.5.1-.7.3-.2.2-.3.4-.3.7 0 .2.1.5.3.7.2.2.4.3.5.5.2.2.4.3.7.3.2 0 .5-.1.7-.3.3-.5.3-1.1 0-1.4zm2.4 4.5c.8 0 .9-1.3 0-1.3-.8-.1-.8 1.3 0 1.3z" fill="#ffffff" stroke-width="none" opacity="1"></path></g></g></g><g id="svga-group-eyesfront-right"><path id="SvgjsPath8247" d="M119.8 73.7c-7.8 0-14.1 6.1-14.1 13.6s6.3 13.6 14.1 13.6 14.1-6.1 14.1-13.6-6.3-13.6-14.1-13.6zm5.3 19.5c-4.4 1.8-15 .1-15 .1.1-1.9 1.3-5.8 4.7-8.7 3.4-2.9 17.2-3.8 16.6-.7-.7 3.1-1.9 7.6-6.3 9.3z" fill="#f0c7b1" stroke-width="none" opacity="1" stroke="none"></path><path id="SvgjsPath8250" d="M131.6 84.1s0-1.3-.9-1.7c-.6-.2-4.4-1-9.1-.7-2.6.2-4.6 1.1-6.1 2.1-.3.2-.6.3-.8.5-.9.8-1.7 1.6-2.4 2.6-1.3 1.9-2.3 4.1-2.3 6.4 0 .3.1.8.1.8s.1-.3.2-.7c2.2.4 4.3.7 6.6.8 1.2.1 2.3.1 3.4.1 1.2 0 2.3-.2 3.4-.4s2.2-.8 3.2-1.4c.9-.7 1.7-1.6 2.4-2.5.6-1 1.1-2 1.5-3.1.2-.5.3-1.1.5-1.7l.2-.8c0-.1 0-.1.1-.2v-.1zm-.4.1-.2.8c-.1.6-.3 1.1-.4 1.7-.4 1.1-.8 2.1-1.4 3.1-1.2 1.9-3.3 3.2-5.5 3.6-.6.1-1.1.2-1.7.3-.6 0-1.1.1-1.7.1-1.1.1-2.3.1-3.4 0-2.2-.1-4.4-.2-6.6-.4.4-1.5 1.5-4.6 2.4-5.7 1.2-1.5 4.2-4.5 8.5-4.9 3.6-.3 8.6.8 10 1.2v.2z" fill="#2b2b2b" stroke-width="none" opacity="1" stroke="none"></path></g></g></g><g id="svga-group-facehighlight-single"></g><g id="svga-group-eyebrows-left-move" transform="matrix(1,0,0,1,0,0)"><g id="svga-group-eyebrows-left-rotate" transform="matrix(1,0,0,1,0,0)"><g id="svga-group-eyebrows-left"><path id="SvgjsPath8163" d="M92.8 69.5s-.2 3.9-1 7.1c0 0-16.1-4.6-18-4.8-1.9-.2-8.4 4.1-8.4 4.1l6.5-9.8 3.8.3-.6-.9 8 1.9 7.5 1.2.5 2.8.4-2.8.5 2.8.8-1.9z" fill="#2a232b" stroke-width="none" opacity="1"></path><path id="SvgjsPath8164" d="m92.8 69.5-.1.1c-.1.3-.2.5-.4.8-.1.2-.2.4-.3.7l-.4-2.5-.2-.9-.2.9-.3 1.6-.3-1.6v-.2h-.2l-3.9-.7-1.9-.3c-.6-.1-1.3-.2-1.9-.3-2.6-.6-5.1-1.2-7.7-1.8l-.8-.2.5.8.3.1-3.1-.2h-.2l-.1.1c-1.1 1.7-2.1 3.3-3.2 5l-3.2 5-.4.6.6-.4c1.9-1.3 3.9-2.5 6-3.4.5-.2 1.1-.4 1.6-.6.3-.1.5-.1.8-.1l.4.1.4.1c1.1.3 2.3.6 3.4.9 2.3.7 4.5 1.3 6.8 1.9 2.3.6 4.5 1.2 6.8 1.8l.2.1v-.2c.3-1.2.4-2.4.6-3.6.1-.6.1-1.2.2-1.8 0-.3 0-.6.1-.9V69.6l.1-.1c0 .1 0 0 0 0zm-.1.4-.1.4-.1.9-.3 1.8c-.2 1.1-.4 2.2-.7 3.3-2.2-.7-4.4-1.3-6.6-2-2.3-.7-4.5-1.3-6.8-1.8-1.1-.3-2.3-.5-3.4-.8l-.4-.1-.4-.1c-.3 0-.6 0-.9.1-.6.2-1.1.4-1.6.6-1.9.9-3.7 1.9-5.5 3.1l2.9-4.2c1.1-1.6 2.2-3.2 3.2-4.7l3.6.3.7.1-.4-.7-.1-.1c2.3.6 4.6 1.1 6.9 1.6l3.9.6 3.7.5.5 2.5.2 1.2.2-1.2.3-2 .4 1.9.1.3.1-.3.3-.9c.1-.3.2-.6.3-.8v.5zm-2.9 4.7c0-.8-.1-1.7-.2-2.5-.1-.4-.1-.8-.2-1.2s-.2-.8-.4-1.2c.1.4.1.8.1 1.2 0 .4.1.8.2 1.2.1.8.3 1.7.5 2.5zm-1.2-1.7c-.2-.3-.3-.7-.5-1l-.5-1-1-1.9-.2-.5v.6c0 1.6 0 3.2.1 4.8l.3-.1c-.3-.4-.6-.9-.9-1.3l-.9-1.2c-.3-.4-.6-.8-1-1.2-.3-.4-.7-.8-1.1-1.1.3.4.7.8 1 1.2l.9 1.2c.3.4.6.8.9 1.3.3.4.6.9.8 1.3l.3.5v-.6c0-1.6-.1-3.2-.1-4.8l-.2.1 1.1 1.9.6.9c0 .3.2.6.4.9z" fill="#1b141c" stroke-width="none" opacity="1"></path></g></g></g><g id="svga-group-eyebrows-right-move" transform="matrix(1,0,0,1,0,0)"><g id="svga-group-eyebrows-right-rotate" transform="matrix(1,0,0,1,0,0)"><g id="svga-group-eyebrows-right"><path id="SvgjsPath8165" d="M107.2 73.2s.9 3.1 2.3 5.5c0 0 14.9-6.1 16.8-6.5 1.9-.4 9 2 9 2l-8.2-6.9-3.6.8.4-.8-7.5 2.7-7.1 2v2.3l-.9-2.2v2.3l-1.2-1.2z" fill="#2a232b" stroke-width="none" opacity="1"></path><path id="SvgjsPath8166" d="m135.4 74.1-4-3.5c-1.3-1.2-2.7-2.3-4.1-3.5l-.1-.1h-.1l-3 .6.1-.2.4-.7-.8.3c-2.4.8-4.8 1.7-7.2 2.6l-1.8.6-1.8.6-3.7 1.1h-.2v1.5l-.6-1.3-.3-.7v.7l.1 2c-.1-.2-.3-.3-.4-.5-.2-.2-.3-.4-.5-.6l-.1-.1V73.2l.1.2.1.4c.1.2.2.5.2.7.2.5.3.9.5 1.4.3.9.8 1.9 1.2 2.8l.1.2.2-.1c2.1-.8 4.2-1.6 6.4-2.5 2.1-.8 4.2-1.7 6.3-2.5 1.1-.4 2.1-.8 3.2-1.2l.4-.1.4-.1c.3-.1.5-.1.8-.1.6 0 1.1.1 1.7.2 2.2.4 4.4 1.1 6.6 1.8l.6.2-.7-.4zm-8.3-2.1c-.3 0-.6 0-.9.1l-.4.1-.4.1c-1.1.3-2.2.7-3.2 1.1-2.2.8-4.3 1.6-6.4 2.4-2.1.8-4.1 1.7-6.1 2.6-.5-.8-.9-1.7-1.2-2.5-.2-.4-.4-.9-.6-1.4l-.3-.7-.1-.3-.1-.2v-.1c.2.2.3.4.4.6.2.2.3.4.5.7l.2.2V72.8l.6 1.5.4.9v-3.1l3.6-1c1.2-.3 2.5-.7 3.7-1 2.2-.8 4.3-1.5 6.5-2.3v.1l-.3.6.7-.2 3.5-.8c1.3 1.1 2.7 2.2 4 3.3l3.6 2.9c-2-.6-3.9-1.2-6-1.6-.6.1-1.1 0-1.7-.1zm-16 4.7c-.2-.7-.2-1.3-.2-2v-1c0-.3 0-.7.2-1 0 .3.1.7.1 1s.1.7.1 1c-.1.7-.1 1.4-.2 2zm.9-1.5c.1-.3.2-.6.3-.8l.3-.8.6-1.7.2-.4.1.4c.3 1.3.5 2.6.8 3.8h-.3l.6-1.2c.2-.4.4-.8.7-1.1.2-.4.5-.7.7-1.1s.5-.7.8-1c-.3.3-.5.7-.7 1.1-.2.4-.4.7-.7 1.1l-.6 1.2-.6 1.2-.2.4-.1-.4c-.3-1.3-.5-2.6-.8-3.8h.3l-.7 1.6-.4.8c0 .2-.1.4-.3.7z" fill="#1b141c" stroke-width="none" opacity="1"></path></g></g></g><g id="svga-group-beardwrap"><g id="svga-group-beard-single-move" transform="matrix(1,0,0,1,0,0)"><g id="svga-group-beard-single"><path id="SvgjsPath8153" d="M95.1 158s-6.6-5.4-8.3-11.6c-1.1-3.8 2.2-5.4 5.4-5.7 3.2-.3 10.7.4 10.7.4l-.1 2.4 1-2.5s5.1.4 7.6 1.5 1.7 4.4.4 7.1c-1.2 2.6-7.3 8.6-7.3 8.6v-1.1l-1 1.4-6.9-.3-2.5-2.2 1 2z" fill="#efefef" stroke-width="none" opacity="1"></path><path id="SvgjsPath8154" d="M113.3 144.2c-.2-.6-.6-1.2-1.1-1.5-.5-.4-1.1-.6-1.6-.7-2.2-.6-4.5-.9-6.7-1.1h-.1l-.1.1-.7 1.7.1-1.6v-.1h-.1c-2.9-.2-5.7-.4-8.6-.5-1.4 0-2.9 0-4.3.4s-2.9 1.2-3.5 2.7c-.3.7-.3 1.6-.2 2.3.2.8.4 1.4.7 2.1.6 1.4 1.3 2.6 2.1 3.8 1.7 2.4 3.7 4.4 6 6.2l-.6-1.7 2.1 2 .1.1h.1c2.3.2 4.6.3 6.9.5h.2l.1-.1.4-.5v1l.6-.6c1.6-1.6 3.2-3.2 4.7-4.9.7-.9 1.5-1.7 2.1-2.7.7-1 1.1-2.1 1.4-3.2.1-1.3.3-2.5 0-3.7zm-.9 3.3c-.3 1-.8 2.1-1.4 2.9-.6.9-1.3 1.8-2.1 2.6-1.3 1.5-2.6 2.9-4 4.3v-1.2l-.6.8-.9 1.2c-2.2-.1-4.4-.1-6.7-.2l-2.5-2.1-.4-.3.2.4c.3.6.6 1.3.9 2-2-1.9-4-4.1-5.5-6.5-.8-1.2-1.5-2.4-2-3.7-.2-.6-.5-1.3-.6-2-.1-.7-.1-1.3.2-1.9.5-1.2 1.7-2 3-2.4 1.3-.4 2.8-.5 4.2-.6 2.8-.1 5.7.1 8.5.3l-.1 2.3v.8l.3-.7 1-2.3c2.2.3 4.4.6 6.4 1.3.5.2 1 .4 1.4.7.4.3.7.7.8 1.2.4 1 .2 2.1-.1 3.1zm-18.8 1.2-.4-1-.1 1c0 .3-.1.6-.1.9-.5-1-1-2-1.4-3.1-.5-1.3-.9-2.6-1.2-4 .1 1.4.5 2.8.9 4.1.4 1.4 1 2.6 1.7 3.9l.4.7.1-.8c0-.2.1-.5.1-.7.5 1.1 1 2.2 1.6 3.3.7 1.4 1.6 2.7 2.6 3.8-.8-1.3-1.6-2.6-2.2-4-.9-1.3-1.5-2.7-2-4.1zm15.1-.1-.5.1-.7.2c.2-1.1.5-2.2.7-3.3l-1.2 3.6-.1.4.4-.1.5-.1-1.2 2.1-1.4 2.6c.7-.8 1.2-1.6 1.8-2.4.5-.8 1.1-1.7 1.6-2.6l.1-.5zm-14.2-6.1c.2 2.4.7 4.7 1.3 7 .3 1.1.6 2.3 1.1 3.4.4 1.1.9 2.2 1.5 3.2-.8-2.2-1.4-4.5-2-6.8-.7-2.2-1.3-4.5-1.9-6.8zm-5.4 4.4c.8 1.8 1.8 3.5 3 5.1.6.8 1.2 1.6 1.8 2.3.7.7 1.3 1.5 2.1 2.1-1.3-1.5-2.4-3.1-3.6-4.7-1-1.6-2.1-3.2-3.3-4.8zm18 6.9c.5-.6 1-1.3 1.4-1.9l1.2-2.1c.8-1.4 1.5-2.8 2-4.4-.9 1.3-1.7 2.7-2.4 4.1-.8 1.5-1.5 2.9-2.2 4.3zm-3.6-3.9-1.5 6.6c.4-1 .8-2.1 1.1-3.2.3-1.1.6-2.2.8-3.3.2-1.1.4-2.2.6-3.4.2-1.1.3-2.2.3-3.4-.2 1.1-.4 2.2-.7 3.3l-.6 3.4zm-4.7-1.3c0 1.4.1 2.7.3 4 .1.7.2 1.3.4 2s.3 1.3.6 1.9c-.1-1.4-.2-2.7-.4-4-.3-1.3-.5-2.6-.9-3.9z" fill="#e0e0e0" stroke-width="none" opacity="1"></path></g></g></g><g id="svga-group-mustache-single-move" transform="matrix(1,0,0,1,0,0)"><g id="svga-group-mustache-single"><path id="SvgjsPath8365" d="M97.7 116.8c.4 1.2.2 2.1-.7 2.5s-16.1-2.9-17.4-2.6.7 16 0 16c-.6 0-3.1-11.3-2.8-15.6s3-3.2 5.4-3.1 15 1 15.5 2.8zm4.4 0c-.4 1.2-.2 2.1.7 2.5.9.4 16.4-2.9 17.8-2.6s-.5 17.1.3 17.1c.6 0 2.9-12.4 2.6-16.7-.3-4.3-3.1-3.2-5.5-3.1-2.4 0-15.3 1-15.9 2.8z" fill="#e5e5e5" stroke-width="none" opacity="1"></path><path id="SvgjsPath8366" d="M96.8 116c-.4-.2-.7-.3-1.1-.4-.8-.2-1.5-.4-2.3-.6-1.6-.3-3.1-.6-4.7-.9-1.6-.2-3.2-.4-4.7-.6-.8-.1-1.6-.1-2.4-.2-.8-.1-1.6-.2-2.5-.1-.4.1-.9.2-1.3.4-.4.3-.7.7-.9 1.1-.4.8-.5 1.7-.5 2.5 0 1.7.2 3.2.4 4.8.5 3.2 1.2 6.3 2.1 9.3.1.4.2.8.4 1.1 0 .1.1.1.1.2l.1.1c.1.1.3 0 .3-.1.2-.2.1-.3.1-.4v-.6c0-.8-.1-1.6-.1-2.4l-.3-4.8c-.1-1.6-.1-3.2-.1-4.7 0-.8 0-1.6.2-2.3 0-.2.1-.4.1-.5h.1c.3 0 .7.1 1.1.1 3.1.5 6.2 1.1 9.4 1.5 1.6.2 3.2.4 4.7.6l1.2.1h.6c.2 0 .4-.2.6-.3.3-.3.4-.7.5-1.1 0-.4-.1-.8-.2-1.2-.1-.2-.5-.4-.9-.6zm.6 3c-.1.1-.3.2-.5.2h-.6c-.4 0-.8-.1-1.2-.2-1.6-.3-3.1-.6-4.7-.9-3.1-.7-6.2-1.3-9.4-1.7-.4-.1-.8-.1-1.2-.1H79.5c-.1 0-.1.1-.2.1-.2.2-.2.3-.3.4-.1.2-.1.4-.1.7-.1.8-.1 1.6 0 2.4l.3 4.8c.1 1.6.2 3.2.3 4.7 0 .8.1 1.6 0 2.4v.2c-.1-.2-.2-.5-.2-.7-.8-3.1-1.3-6.2-1.7-9.3-.2-1.6-.3-3.1-.3-4.7.1-.8.1-1.5.4-2.1.3-.6.8-.9 1.5-1 .7-.1 1.5 0 2.3.1.8.1 1.6.1 2.4.1 1.6.1 3.2.2 4.7.3 1.6.1 3.2.3 4.7.5.8.1 1.6.3 2.3.5.4.1.8.2 1.1.4.3.2.7.3.9.7.3.7.4 1.7-.2 2.2zm26.3-3.8c-.2-.4-.4-.9-.8-1.2-.4-.4-.9-.6-1.3-.7-.9-.2-1.8 0-2.6 0-.8.1-1.6.1-2.4.2-1.7.2-3.3.3-4.9.6-1.6.2-3.3.5-4.9.9l-2.4.6c-.4.1-.8.2-1.2.4-.4.2-.8.3-1 .8-.1.4-.2.8-.2 1.2 0 .4.2.9.5 1.1.2.1.4.3.6.2h.6l1.2-.1c1.6-.2 3.3-.4 4.9-.6s3.3-.4 4.9-.7c1.6-.2 3.2-.6 4.9-.8l.6-.1h.3c0 .1.1.2.1.4s.1.4.1.6c.1.8.1 1.6.2 2.4.1 1.6 0 3.3-.1 4.9 0 1.7-.2 3.3-.2 4.9 0 .8-.1 1.6-.1 2.5v.6c0 .1 0 .2.1.4l.1.1c.1.1.3.1.4 0l.2-.2c.2-.4.3-.8.4-1.2.9-3.2 1.5-6.5 2-9.7.2-1.7.4-3.3.4-5-.1-.7-.1-1.6-.4-2.5zm-1 7.5c-.4 3.2-.8 6.5-1.6 9.7-.1.2-.1.5-.2.7v-2.8c.1-1.6.1-3.3.2-4.9.1-1.7.2-3.3.3-4.9V118c0-.2 0-.4-.1-.7-.1-.2-.1-.4-.3-.7-.1-.1-.2-.2-.3-.2h-1.1c-3.3.4-6.5 1-9.8 1.7-1.6.3-3.2.7-4.8 1-.4.1-.8.1-1.2.2-.4 0-.8.1-1.1-.2-.3-.2-.5-.6-.5-1s.1-.8.2-1.2c.2-.3.6-.5.9-.7.4-.2.8-.3 1.2-.4.8-.2 1.6-.4 2.4-.5 1.6-.2 3.3-.4 4.9-.5 1.6-.1 3.3-.2 4.9-.3.8 0 1.6-.1 2.5-.1.8-.1 1.6-.2 2.3 0 .7.1 1.1.6 1.4 1.2s.3 1.5.3 2.3c-.2 1.5-.4 3.2-.5 4.8z" fill="#d6d6d6" stroke-width="none" opacity="1"></path></g></g><g id="svga-group-nose-single-move" transform="matrix(1,0,0,1,0,0)"><g id="svga-group-nose-single"><path id="SvgjsPath8373" d="M109.17 110.81c-.53.26-3.47.14-4.2-.24 0 0 .03 2.05-.87 2.91-.9.87-3.09 1.28-4.65 1.28-1.56 0-3.99-.31-4.47-1.21-.49-.9-.59-2.81-.59-2.81s-1.8.28-2.5.1c-.69-.17-2.67-.83-3.02-3.05-.35-2.22.42-3.99 1.94-5.06 1.53-1.07 5.51-1.94 10.68-1.66s6.93 1.32 7.97 1.98c1.04.66 1.53 3.22 1.11 4.82s-.63 2.56-1.4 2.94z" fill="#f0c7b1" stroke-width="none" opacity="1" stroke="none"></path><path id="SvgjsPath8374" d="M93.99 90.35c.55.63.95 1.39 1.25 2.17.3.79.49 1.62.55 2.47.08.85-.01 1.71-.22 2.53-.19.83-.59 1.6-1.08 2.27.16-.83.35-1.59.4-2.39.07-.78.08-1.57.01-2.35-.06-.78-.17-1.56-.33-2.34-.16-.78-.35-1.56-.58-2.36z" fill="#c27b55" stroke-width="none" opacity="1" stroke="none"></path><path id="SvgjsPath8375" d="M105.98 110.78c.88.1 1.8.14 2.62-.08.1-.03.2-.06.29-.1.09-.03.14-.08.22-.14.14-.12.27-.28.38-.45.23-.34.4-.74.55-1.14.56-1.61.54-3.45-.32-4.88-.22-.37-.44-.67-.77-.92-.32-.26-.7-.46-1.1-.65-.8-.36-1.66-.62-2.53-.79-1.75-.35-3.56-.42-5.35-.37-1.79.06-3.58.19-5.33.43-.88.12-1.69.32-2.44.71-.75.38-1.44.88-2.01 1.49-.57.6-1 1.34-1.17 2.12-.08.39-.09.79-.01 1.18.08.42.2.83.36 1.22.32.77.83 1.49 1.56 1.92.37.21.77.36 1.2.44.43.08.87.07 1.32.04l.02.09c-.87.23-1.86.23-2.74-.18-.88-.4-1.55-1.17-1.98-2.02-.21-.43-.37-.88-.49-1.34-.13-.48-.14-1.01-.07-1.5.15-1 .67-1.88 1.31-2.6a7.198 7.198 0 0 1 3.66-2.17c.47-.11.93-.17 1.39-.23 1.82-.2 3.64-.19 5.44-.08 1.81.11 3.6.28 5.39.55.89.14 1.79.3 2.67.59.44.15.88.34 1.29.6.21.13.4.29.59.47.18.2.31.38.45.59.54.81.81 1.79.83 2.74.03.96-.16 1.91-.52 2.78-.18.44-.41.86-.71 1.24-.15.19-.32.38-.53.53-.1.08-.24.15-.37.19-.12.03-.24.07-.36.08-.48.09-.95.05-1.4 0-.46-.06-.9-.15-1.34-.29v-.07z" fill="#c27b55" stroke-width="none" opacity="1" stroke="none"></path><path id="SvgjsPath8376" d="M91.77 110.11c.15-.48.59-.89 1.13-.97.26-.04.54-.05.82.07.28.12.49.36.61.6.25.5.32 1.02.42 1.51.09.49.16.98.3 1.42.14.44.36.81.67 1.01.14.1.38.17.59.25.22.07.45.13.68.18.93.19 1.9.27 2.86.22.96-.03 1.92-.17 2.79-.5.43-.16.81-.39 1.11-.7.3-.31.51-.7.65-1.14.14-.44.2-.92.27-1.41.04-.25.06-.5.14-.78.04-.14.1-.28.21-.43.06-.06.13-.12.19-.17.07-.04.14-.07.21-.1.27-.1.54-.12.81-.12s.53.04.78.12c.25.08.5.21.67.43.17.23.13.53.02.75.08-.24.05-.51-.12-.66-.16-.16-.39-.24-.62-.28-.46-.08-.97-.03-1.35.16-.2.1-.24.2-.29.42-.04.21-.05.46-.06.71-.02.5-.05 1.02-.18 1.55-.12.52-.36 1.05-.75 1.48-.38.43-.87.74-1.36.95-1 .41-2.04.57-3.07.61-1.03.03-2.07-.05-3.09-.29-.25-.06-.51-.14-.76-.23-.25-.1-.5-.19-.77-.37-.53-.37-.77-.95-.9-1.47-.13-.53-.17-1.04-.21-1.53-.04-.49-.08-.99-.24-1.4-.08-.21-.2-.38-.37-.48-.17-.11-.41-.13-.64-.13-.45-.01-.91.28-1.15.72z" fill="#c27b55" stroke-width="none" opacity="1" stroke="none"></path><path id="SvgjsPath8377" d="M107.55 103.22c-1.63-1.1-3.85-1.18-5.75-1.28-2.45-.13-5.23-.3-7.55.58-.1.04-.08.17.02.18 2.66.27 5.36-.21 8.06.06 2.11.21 4.28.38 5.6 2.32 1.15 1.68.54 3.21.3 4.98-.03.22.19.37.37.22 2.19-1.85 1.09-5.61-1.05-7.06z" fill="#f8d5c3" stroke-width="none" opacity="1" stroke="none"></path></g></g><g id="svga-group-hair-front"><path id="SvgjsPath8434" d="M52.6 63.6s-2.3 16.1-12.4 22.2c0 0 4.2-.4 6.9-2.3 0 0-1 8.2 4.2 14.9 0 0-3.2-8.4-1.2-14.4s6.5-11.7 6.5-11.7 3.2 5.9 4.4 11.9c1.2 5.9.2 10 .2 10s4.4-13.6 2.3-20.9S62.3 54 62.3 54s6 3 10.9 3c0 0-6.3-3.1-7.5-6.9 0 0 6.3-1.5 12.4-.4 6.1 1.2 9.2 3.8 9.2 3.8s-4.8-6.3-11.1-8.4c0 0 13.8 0 22.2-3.1 0 0 2.3 2.3 8.8 2.1 6.5-.2 7.7-1.5 12.4-1.2s12.6 3.6 14.2 8.6 1.5 11.3 3.8 14.6c0 0-.2 11.1-3.2 14 0 0 2.7-3.2 3.6-6.1 0 0 6.5 10.9 14.9 13.4 0 0-4.8-5.6-5.6-8 0 0 9.4 4.8 10.5 12.2 0 0 .2-9.2-7.1-19 0 0 3.4 1.7 8.2.6 0 0-7.7-6.7-9.6-13.4 0 0 3.6 2.9 7.9 3.5 0 0-9.2-9-10.1-13.6 0 0 3.4-.6 7.1 1.5 0 0-2.7-9.6-12.4-15.5 0 0 3.6-1.3 5.2-3.6 0 0-8.8 2.5-12.6 2.3 0 0 2.3-3.8 3.6-8.2 0 0-8.6 2.9-13.8 1.5 0 0 5.4-6.5 6.7-9.6 0 0-14.9 7.1-22.8 5 0 0 11.7-8.8 14-14.4 0 0-18.4 8.8-25.1 9.2l1.5-2.9-5.9 3.1 1.3-2.1-3.1.2S78.9 21 73.6 28.8c0 0 2.7-6.5 2.9-12.2 0 0-2.7 3.1-5.4 5.4s-9.7 13.4-10.9 15-3.6 7-3.6 7-.6-9.8-5.4-13c0 0 4 5.7 3.5 16.3 0 0-3.6 5-11.9-2.7 0 0 1.2 6.3 10.9 6.5 0 0-8.4 6.3-8.6 18.4 0 0 2.9-7.1 7.5-5.9z" fill="#e8e8e8" stroke-width="none" opacity="1" stroke="none"></path><path id="SvgjsPath8435" d="M129.9 19.4C118.8 36 96.3 45.7 76.5 44.7c-.4 0-.4.6 0 .6 10.8 1.2 21.9-2.5 31.7-6.8 8.8-3.9 18-9.8 22.3-18.8.2-.3-.3-.7-.6-.3zm-17.1 4.8c6.4-.1 12.9-2 18.2-5.8.3-.2 0-.7-.3-.5-5.7 3.2-11.3 5.3-17.9 5.8-.3.1-.3.5 0 .5zm22.5 8c.3-.2 0-.7-.3-.5-5.1 3.1-10.2 6-15.8 8.1-5.3 2.1-12.3 4.8-18 3.4-.4-.1-.5.5-.2.6 5.4 1.9 11.7-.7 16.8-2.5 6.2-2.2 12.2-5.1 17.5-9.1zm8.8 22.8c.2.3.6 0 .4-.3-5.2-9.5-16.8-12.7-27-12-.3 0-.3.5 0 .5 10.6.8 20 2.8 26.6 11.8zM158 72.8c.4.1.6-.5.3-.6-10-5.1-17.9-11.3-24.3-20.6-.2-.3-.6 0-.4.2 5.1 9.4 14.1 17.6 24.4 21zm-16.3-5.9c-.3-.2-.6.1-.4.4 4 4.3 10.4 6.2 16.1 6.4.4 0 .5-.7.1-.8-5.8-1.2-11.1-2.1-15.8-6zm11.2 19.9c-6.1-3.3-10.8-7.3-14.1-13.6-.2-.3-.7-.1-.6.2 2.6 6.2 7.9 11.9 14.4 14 .4.2.6-.4.3-.6zm-59-57.7c-.4.1-.2.7.2.6 11.8-3 24.1-11.1 29.5-22.3.1-.2-.2-.4-.4-.2-7.9 10.5-16.4 18.1-29.3 21.9zm4.7-10.6c7.8-2 15.7-4.4 22.4-8.9.3-.2 0-.6-.3-.5-7.1 4-14.6 6.4-22.2 9-.3 0-.2.4.1.4zM80 28.9c-.2.3.2.6.4.4 5.2-5.8 11-10.1 17.8-13.9.2-.1.1-.6-.2-.5-6.9 2.9-13.3 8-18 14zm-7.4 1.2c-.2.2.2.5.4.3 5.6-6 11.5-10.4 19-13.9.3-.1.1-.6-.2-.5-7.5 2.4-14.6 7.7-19.2 14.1zm-8.8 6.5c-.2.2.1.5.3.4 7.2-4.5 12.6-13.1 13.1-21.6 0-.3-.4-.3-.4-.1-2.2 8.8-6 15.4-13 21.3zm-7.5 8.3v.3c0 .7.1 1.3.1 2 0 .3.4.3.4 0 .1-.8.2-1.7.2-2.5C61 34.5 67.8 27 75.1 18.9c.3-.3-.2-.7-.4-.4-7.2 6.8-14.4 14.8-17.7 24.3-.2-4.5-1.8-9-5.5-11.9-.3-.2-.8.2-.5.5 4.1 3.6 5 8.4 5.3 13.5zm-2.2 4.9c-4.9 2.1-9.2-.6-10.8-5.4-.1-.3-.7-.3-.7.1.4 5.8 6.9 8.4 11.6 5.7.3 0 .1-.5-.1-.4zm1.4-2.4c-4.3 2.3-8.6.8-11.6-2.8-.2-.2-.5.1-.4.3 2.7 3.8 8.2 6.7 12.3 3.1.4-.3 0-.8-.3-.6zm-2 3.4c-5.9 4.5-8.7 11.6-8.9 18.9 0 .3.6.4.6.1 1.2-7.1 2.9-13.6 8.8-18.3.3-.4-.1-1-.5-.7zm-7.8 18.9c.8-2.7 3-4.7 5.6-5.8.4-.2.2-.7-.2-.6-3 .8-5.1 3.2-5.7 6.3-.1.2.2.3.3.1zm7-8.7C50.9 72.6 47 82.6 35.6 87.5c-.3.1-.1.6.2.5 11.9-2.7 16.7-16.2 17.7-27 .1-.4-.7-.5-.8 0zm101.2-13.2c.1.2.5.1.4-.2-1.8-5.5-6.8-9.8-12.1-12-.3-.1-.4.3-.2.5 5.2 3 8.6 6.9 11.9 11.7zm-7.1 1.6c1.9 5.5 6.3 10.8 10.8 14.4.2.2.6-.1.4-.3-3.6-4.8-7.9-8.8-10.8-14.2-.1-.4-.5-.2-.4.1zM47.2 83c0-.4-.6-.4-.6-.1-1.3 5.6.7 11.8 4.7 15.8.2.2.7-.1.5-.4-3.5-4.7-4.7-9.5-4.6-15.3zm105.4-5.7c-.3-.3-.7.2-.4.4 3.9 3.9 5.6 8.8 5.6 14.3 0 .3.5.4.6.1.8-5.6-1.6-11.1-5.8-14.8zm-91 9.5c-.1-7.1-5.2-12.6-4.5-20 0-.2-.4-.3-.4-.1-1.9 6.8 3.1 13.6 4.3 20.1.1.4.6.3.6 0zM72.8 56c-4.3-1.4-5.9-5-7.7-8.8-.1-.2-.5-.1-.4.2.9 3.1 2.6 7.1 5.7 8.6-1.7-.2-3.4-.5-5-1.1-1.9-.7-3.4-1.8-5.1-2.7-.2-.1-.4.2-.2.3.5.5 1 1 1.6 1.4-1.4 4.9-.7 10 .1 15 1.2 7.6 2.1 14.2-1 21.5-.2.4.3.6.5.3 3.1-4.4 3-10.2 2.4-15.3-.9-7.3-2.8-13.8-1.7-21.2 2.6 1.8 6.2 2.6 9.1 2.4.2 0 .3-.1.2-.3.5.1.9.2 1.5.2.3.1.3-.4 0-.5zm5.1-7c-3.5-1-7.2-1.3-10.6.2-.2.1-.1.4.2.4 6.5-1.2 14.3.2 19.5 4.6.3.2.6-.1.4-.4-2.1-2.6-6.3-3.9-9.5-4.8zm53.6-13.3c-.2 0-.2.4.1.4 2.5 0 4.1-2.3 5.2-4.3 1.6-2.7 2.6-5.9 2.2-9 0-.3-.5-.4-.5-.1-.4 2.4-.7 4.8-1.7 7.1-1 2.2-2.7 5.5-5.3 5.9z" fill="#d9d9d9" stroke-width="none" opacity="1" stroke="none"></path></g><g id="svga-group-glasses-single-move" transform="matrix(1,0,0,1,0,0)"><g id="svga-group-glasses-single"><path id="SvgjsPath10199" d="M85.9 86.3c5.2 0 9.4 4.2 9.4 9.4s-4.2 9.4-9.4 9.4-9.4-4.2-9.4-9.4 4.2-9.4 9.4-9.4z" fill="#ffffff" stroke-width="none" opacity="0.53"></path><path id="SvgjsPath10200" d="M114.3 86.3c5.2 0 9.4 4.2 9.4 9.4s-4.2 9.4-9.4 9.4-9.4-4.2-9.4-9.4 4.2-9.4 9.4-9.4z" fill="#ffffff" stroke-width="none" opacity="0.53"></path><path id="SvgjsPath10201" d="M85.9 85.8c-4.1 0-7.7 2.6-9.1 6.2-.5 0-1.7-.1-2.5.1l.1 2.4 1.8-.1c-.1.4-.1.8-.1 1.2 0 5.4 4.4 9.9 9.9 9.9s9.9-4.4 9.9-9.9-4.5-9.8-10-9.8zm0 18.8c-4.9 0-9-4-9-9s4-9 9-9 9 4 9 9-4 9-9 9zm18.5-8.9c0 5.4 4.4 9.9 9.9 9.9s9.9-4.4 9.9-9.9c0-.4 0-.8-.1-1.2l1.8.1.1-2.4c-.8-.1-2-.1-2.5-.1-1.5-3.6-5-6.2-9.1-6.2-5.6-.1-10 4.3-10 9.8zm.9 0c0-4.9 4-9 9-9s9 4 9 9-4 9-9 9c-5-.1-9-4.1-9-9z" fill="#bdbab9" stroke-width="none" opacity="1" stroke="none"></path><path id="SvgjsPath10202" d="M85.9 85.8c-1.9 0-3.9.6-5.5 1.8-1.6 1.1-2.8 2.7-3.5 4.5l-.1.1h-.1c-.8 0-1.7 0-2.5.1l.2-.2.1 2.4-.2-.2h2v.2c-.3 1.9 0 4 .9 5.7.5.9 1 1.7 1.7 2.4s1.5 1.3 2.4 1.7c1.8.9 3.8 1.2 5.7 1 1.9-.3 3.8-1.1 5.2-2.4.7-.6 1.3-1.4 1.8-2.2s.9-1.7 1.1-2.7c.5-1.9.3-3.9-.3-5.7-.6-1.8-1.9-3.5-3.5-4.6-.8-.6-1.7-1-2.6-1.3-.8-.4-1.8-.6-2.8-.6zm0 0c1 0 2 .2 2.9.4.9.3 1.9.7 2.7 1.3 1.7 1.1 3 2.7 3.7 4.6.4.9.6 1.9.7 3 .1 1 0 2-.3 3-.2 1-.6 1.9-1.2 2.8-.5.9-1.2 1.7-2 2.3-1.5 1.3-3.5 2.2-5.5 2.4-2 .2-4.1-.2-5.8-1.1-.9-.5-1.7-1.1-2.4-1.8s-1.3-1.5-1.8-2.4c-.9-1.8-1.3-3.8-1.1-5.8l.2.2-1.8.1H74v-.2l-.1-2.4V92h.2c.9-.1 1.7-.1 2.5-.1l-.2.1c.8-1.8 2.1-3.4 3.8-4.5 1.8-1.2 3.8-1.7 5.7-1.7zm0 18.9c-2.4 0-4.7-.9-6.4-2.6-1.7-1.6-2.8-4-2.7-6.4 0-2.4 1.1-4.7 2.8-6.4 1.7-1.7 4-2.7 6.4-2.7s4.8.9 6.5 2.6 2.7 4.1 2.7 6.5-1 4.8-2.8 6.4c-1.8 1.7-4.1 2.6-6.5 2.6zm0-.1c2.3 0 4.7-1 6.2-2.7 1.6-1.7 2.5-3.9 2.5-6.2 0-2.3-.9-4.6-2.6-6.2-1.6-1.6-3.9-2.6-6.2-2.7-2.3 0-4.7.9-6.3 2.6-1.7 1.7-2.5 4-2.5 6.3s.9 4.6 2.6 6.2c1.7 1.7 4 2.7 6.3 2.7zm18.5-8.9c0 2.7 1.2 5.3 3.2 7.1 2 1.8 4.6 2.7 7.2 2.6s5.2-1.4 6.9-3.4c1.8-2 2.5-4.8 2.1-7.4v-.1H125.7l-.1.1v-2.4l.1.2c-.8-.1-1.6-.1-2.5-.1h-.1l-.1-.1c-.9-2.1-2.4-3.8-4.4-4.8-1.9-1.1-4.2-1.4-6.4-1-2.2.4-4.2 1.6-5.7 3.3-1.2 1.5-2 3.7-2.1 6zm0 0c0-2.3.8-4.5 2.2-6.3 1.4-1.8 3.5-3.1 5.8-3.6 2.3-.4 4.7-.1 6.7 1s3.6 3 4.5 5.1l-.2-.1c.8 0 1.7 0 2.5.1h.1v.1l-.1 2.4v.1h-.1l-1.8-.1.1-.1c.3 2.7-.5 5.5-2.2 7.6s-4.3 3.5-7 3.7-5.5-.8-7.5-2.7c-1.9-1.9-3-4.6-3-7.2zm.9 0c0-2.4.9-4.7 2.6-6.4 1.6-1.7 4-2.8 6.4-2.7 2.4 0 4.7 1.1 6.4 2.8 1.7 1.7 2.7 4 2.7 6.4s-.9 4.8-2.6 6.5-4.1 2.7-6.5 2.7-4.8-1-6.4-2.8c-1.7-1.8-2.6-4.2-2.6-6.5zm0 0c0 2.3 1 4.7 2.7 6.2 1.7 1.6 3.9 2.5 6.2 2.5 2.3 0 4.6-.9 6.2-2.6 1.6-1.6 2.6-3.9 2.7-6.2 0-2.3-.9-4.7-2.6-6.3-1.7-1.7-4-2.5-6.3-2.5s-4.6.9-6.2 2.6c-1.7 1.6-2.7 3.9-2.7 6.3z" fill="#9e847b" stroke-width="none" opacity="1" stroke="none"></path><path id="SvgjsPath10203" d="M94.4 94.7h11.5v1.2H94.4v-1.2z" fill="#9e847b" stroke-width="none" opacity="1" stroke="#bdbab9"></path></g></g></g></g></g><rect id="svga-credit-rect" width="200" height="15" x="0" y="185" fill="#ecf0f1" opacity="0.5" style="display: none;"></rect><text id="svga-credit-text" font-family="Avenir Next, Roboto, Helvetica, Arial, sans-serif" font-size="10px" text-anchor="start" font-weight="400" size="10px" anchor="start" weight="400" fill="#333333" x="33.402061462402344" y="182.71133995056152" style="display: none;"><tspan id="SvgjsTspan8134" dy="13" x="33.402061462402344">Created on AvatarMaker.com</tspan></text></g><defs id="SvgjsDefs8081"><linearGradient id="SvgjsLinearGradient9970" x1="79.4739" y1="121.3709" x2="79.4739" y2="101.6175" gradientTransform="matrix(1 0 0 -1 0 202)" gradientUnits="userSpaceOnUse" class="svga-on-canvas-glasses-gradient-single-0-null"><stop id="SvgjsStop9971" stop-opacity="1" stop-color="#bfeaf2" offset="0" ></stop><stop id="SvgjsStop9972" stop-opacity="0.649" stop-color="#a1cae3" offset="0.351" ></stop><stop id="SvgjsStop9973" stop-opacity="0" stop-color="#6086c4" offset="1" ></stop></linearGradient><linearGradient id="SvgjsLinearGradient9975" x1="-1738.6592" y1="121.1959" x2="-1738.6592" y2="101.7599" gradientTransform="matrix(-1 0 0 -1 -1618 202)" gradientUnits="userSpaceOnUse" class="svga-on-canvas-glasses-gradient-single-1-null"><stop id="SvgjsStop9976" stop-opacity="1" stop-color="#bfeaf2" offset="0" ></stop><stop id="SvgjsStop9977" stop-opacity="0.649" stop-color="#a1cae3" offset="0.351" ></stop><stop id="SvgjsStop9978" stop-opacity="0" stop-color="#6086c4" offset="1" ></stop></linearGradient><linearGradient id="SvgjsLinearGradient10029" x1="76.8578" y1="72.7421" x2="76.8578" y2="106.2276" gradientUnits="userSpaceOnUse" class="svga-on-canvas-glasses-gradient-single-0-null"><stop id="SvgjsStop10030" stop-opacity="1" stop-color="#ff73b2" offset="0.004166667" ></stop><stop id="SvgjsStop10031" stop-opacity="0.8085" stop-color="#ff75ae" offset="0.1949" ></stop><stop id="SvgjsStop10032" stop-opacity="0.5986" stop-color="#ff79a0" offset="0.4039" ></stop><stop id="SvgjsStop10033" stop-opacity="0.3799" stop-color="#ff818a" offset="0.6217" ></stop><stop id="SvgjsStop10034" stop-opacity="0.1566" stop-color="#ff8b6c" offset="0.844" ></stop><stop id="SvgjsStop10035" stop-opacity="0" stop-color="#ff9452" offset="1" ></stop></linearGradient><linearGradient id="SvgjsLinearGradient10037" x1="-23.9909" y1="72.7421" x2="-23.9909" y2="106.2276" gradientTransform="matrix(-1 0 0 1 100 0)" gradientUnits="userSpaceOnUse" class="svga-on-canvas-glasses-gradient-single-1-null"><stop id="SvgjsStop10038" stop-opacity="1" stop-color="#ff73b2" offset="0.004166667" ></stop><stop id="SvgjsStop10039" stop-opacity="0.8085" stop-color="#ff75ae" offset="0.1949" ></stop><stop id="SvgjsStop10040" stop-opacity="0.5986" stop-color="#ff79a0" offset="0.4039" ></stop><stop id="SvgjsStop10041" stop-opacity="0.3799" stop-color="#ff818a" offset="0.6217" ></stop><stop id="SvgjsStop10042" stop-opacity="0.1566" stop-color="#ff8b6c" offset="0.844" ></stop><stop id="SvgjsStop10043" stop-opacity="0" stop-color="#ff9452" offset="1" ></stop></linearGradient><linearGradient id="SvgjsLinearGradient10118" x1="79.1" y1="71.7" x2="79.1" y2="105.64" gradientUnits="userSpaceOnUse" class="svga-on-canvas-glasses-gradient-single-0-null"><stop id="SvgjsStop10119" stop-opacity="1" stop-color="#b4c0cf" offset="0" ></stop><stop id="SvgjsStop10120" stop-opacity="0.9374" stop-color="#abbace" offset="0.0626" ></stop><stop id="SvgjsStop10121" stop-opacity="0.679" stop-color="#8aa3ca" offset="0.321" ></stop><stop id="SvgjsStop10122" stop-opacity="0.4305" stop-color="#7393c6" offset="0.5695" ></stop><stop id="SvgjsStop10123" stop-opacity="0.1987" stop-color="#6589c5" offset="0.8013" ></stop><stop id="SvgjsStop10124" stop-opacity="0" stop-color="#6086c4" offset="1" ></stop></linearGradient><linearGradient id="SvgjsLinearGradient10126" x1="121.5" y1="71.7" x2="121.5" y2="105.64" gradientUnits="userSpaceOnUse" class="svga-on-canvas-glasses-gradient-single-1-null"><stop id="SvgjsStop10127" stop-opacity="1" stop-color="#b4c0cf" offset="0" ></stop><stop id="SvgjsStop10128" stop-opacity="0.9374" stop-color="#abbace" offset="0.0626" ></stop><stop id="SvgjsStop10129" stop-opacity="0.679" stop-color="#8aa3ca" offset="0.321" ></stop><stop id="SvgjsStop10130" stop-opacity="0.4305" stop-color="#7393c6" offset="0.5695" ></stop><stop id="SvgjsStop10131" stop-opacity="0.1987" stop-color="#6589c5" offset="0.8013" ></stop><stop id="SvgjsStop10132" stop-opacity="0" stop-color="#6086c4" offset="1" ></stop></linearGradient></defs></svg>